<svg xmlns="http://www.w3.org/2000/svg" viewBox="0 0 30 30"><path d="M6 24v-2a9.529 9.529 0 0 0 0-1 4.5 4.5 0 0 1 1-3 4.026 4.026 0 0 1 2.161-.846c.467-.12.92-.235 1.28-.37a1.774 1.774 0 0 0 .551-.288c.166-.382.03-.649-.493-1.412a8.462 8.462 0 0 1-.783-1.316 6.524 6.524 0 0 1-.305-4.772 4.3 4.3 0 0 1 1.946-2.382 6.385 6.385 0 0 1 3.24-.8 6.387 6.387 0 0 1 3.241.8 4.3 4.3 0 0 1 1.946 2.382 6.528 6.528 0 0 1-.306 4.772 8.355 8.355 0 0 1-.778 1.308c-.529.771-.665 1.039-.554 1.341a1.32 1.32 0 0 0 .605.368 12.735 12.735 0 0 0 1.258.364A3.448 3.448 0 0 1 22 18a4.081 4.081 0 0 1 1 3c-.006.468 0 .653 0 1v2H6zm8.6-16.13c-.957 0-2.637.227-3.137 1.743a4.523 4.523 0 0 0 .232 3.346 6.7 6.7 0 0 0 .6 1c.588.857 1.474 2 .717 3.3A3.952 3.952 0 0 1 10 19c-1.038.17-1.991.388-2 1a1.969 1.969 0 0 1 0 1v1h13v-1c-.022-.406.009-.711 0-1-.026-.6-1.126-.595-2-1-1.063-.493-2.3-.568-2.821-1.748-.6-1.371.128-2.437.716-3.294a6.637 6.637 0 0 0 .6-1 4.521 4.521 0 0 0 .232-3.346C17.233 8.1 15.553 7.87 14.6 7.87z"/></svg>