<svg xmlns="http://www.w3.org/2000/svg" preserveAspectRatio="xMidYMid" width="21.428" height="34.317" viewBox="0 0 20 32.03"><path d="M4.999 8.917h3c.553 0 1-.442 1-.991a.995.995 0 0 0-1-.992h-3c-.552 0-1 .444-1 .992 0 .549.448.991 1 .991zm0 3.97h10c.553 0 1-.444 1-.992a.996.996 0 0 0-1-.993h-10c-.552 0-1 .445-1 .993s.448.992 1 .992zm0 3.967h10c.553 0 1-.443 1-.992a.995.995 0 0 0-1-.992h-10c-.552 0-1 .444-1 .992 0 .549.448.992 1 .992zM18.292 4.871l-3.214-3.187c-.974-.966-2.746-1.693-4.121-1.693H2.999c-1.654 0-3 1.334-3 2.976v18.831c0 1.64 1.346 2.976 3 2.976h5v-1.986h-5c-.552 0-1-.443-1-.99V2.967a.998.998 0 0 1 1-.993h7.958l.042.002v3.966c0 1.642 1.346 2.975 3 2.975h3.997c0 .015.003.029.003.044v12.837c0 .547-.448.99-1 .99h-5v1.986h5c1.654 0 3-1.336 3-2.976V8.961c0-1.366-.733-3.125-1.707-4.09zm-4.293 2.063c-.552 0-1-.443-1-.992V2.606c.261.148.495.312.665.48l3.214 3.189c.171.169.335.4.485.659h-3.364zM12.421 27.89l-1.422.998v-9.076a.994.994 0 0 0-1-.99c-.553 0-1 .443-1 .99v9.076l-1.422-.998a1.005 1.005 0 0 0-1.394.236.99.99 0 0 0 .238 1.385l3.578 2.514 3.578-2.514a.992.992 0 0 0 .239-1.385 1.006 1.006 0 0 0-1.395-.236z" class="cls-1"/></svg>