<svg xmlns="http://www.w3.org/2000/svg" viewBox="0 0 198.4 37"><path d="M82.4 33.6c-.1 0-10.5-3-25.8-4.4-.8-7.3-7-13-14.5-13s-13.7 5.7-14.5 13c-15.4 1.4-25.9 4.4-26 4.4-.8.2-1.2 1.1-1 1.9.2.8 1.1 1.3 1.9 1 .2 0 17.1-4.9 39.6-4.9s39.4 4.9 39.5 4.9c.1 0 .3.1.4.1.6 0 1.2-.4 1.4-1.1.3-.9-.2-1.7-1-1.9zM42 28.5c-4 0-7.8.2-11.4.4.8-6 5.6-9.7 11.4-9.7 5.8 0 10.6 3.8 11.4 9.7-3.5-.2-7.3-.4-11.4-.4zm.1-17.4c.8 0 1.5-.7 1.5-1.5V1.5c0-.8-.7-1.5-1.5-1.5s-1.5.7-1.5 1.5v8.1c-.1.8.6 1.5 1.5 1.5zm-12.4 2.3c.3.5.8.8 1.3.8.3 0 .5-.1.8-.2.7-.4 1-1.3.6-2.1l-4-7c-.4-.7-1.3-1-2.1-.6-.7.4-1 1.3-.6 2.1l4 7zM14.9 19l7 4c.2.1.5.2.8.2.5 0 1-.3 1.3-.8.4-.7.2-1.7-.6-2.1l-7-4c-.7-.4-1.6-.2-2.1.6-.3.7-.1 1.6.6 2.1zm38.3-5.1c.2.1.5.2.8.2.5 0 1-.3 1.3-.8l4-7c.4-.7.2-1.7-.6-2.1-.7-.4-1.6-.2-2.1.6l-4 7c-.4.8-.1 1.7.6 2.1zm9.1 9.3c.3 0 .5-.1.8-.2l7-4c.7-.4 1-1.3.6-2.1-.4-.7-1.3-1-2.1-.6l-7 4c-.7.4-1 1.3-.6 2.1.2.5.7.8 1.3.8zm113.1-1c.4-.2.6-.6.6-1.3 0-.7-.2-1.4-.6-2.1s-.9-1.3-1.7-1.7-1.6-.7-2.7-.7c-.8 0-1.5.1-2.2.4s-1.2.6-1.7 1.1-.8 1.1-1 1.7-.4 1.4-.4 2.2c0 1.7.5 3 1.4 4s2.3 1.5 4 1.5c.7 0 1.4-.1 2-.3s1.1-.4 1.4-.7.7-.6.9-.9.3-.6.3-.8c0-.3-.1-.5-.3-.6s-.4-.2-.7-.2c-.3 0-.4.1-.6.2-.3.3-.6.6-.8.7s-.4.4-.7.5-.5.3-.8.4-.6.1-.9.1c-.5 0-.9-.1-1.3-.4s-.7-.6-.9-1-.4-1-.4-1.6h5.2c1-.2 1.6-.3 1.9-.5zm-6.8-1.2c.1-.9.4-1.6.8-2s1-.7 1.6-.7c.7 0 1.3.2 1.7.7s.7 1.1.7 2h-4.8zm-11.8-8.6c-.4 0-.7.1-1 .4s-.4.7-.4 1.2v11.6c0 .5.1.9.4 1.2s.6.4 1 .4.7-.1 1-.4.4-.7.4-1.2V14.1c0-.5-.1-.9-.4-1.2s-.6-.5-1-.5zm-4.2 9.8c.4-.2.6-.6.6-1.3 0-.7-.2-1.4-.6-2.1s-.9-1.3-1.7-1.7-1.6-.7-2.7-.7c-.8 0-1.5.1-2.2.4s-1.2.6-1.7 1.1-.8 1.1-1 1.7-.4 1.4-.4 2.2c0 1.7.5 3 1.4 4s2.3 1.5 4 1.5c.7 0 1.4-.1 2-.3s1.1-.4 1.4-.7.7-.6.9-.9.3-.6.3-.8c0-.3-.1-.5-.3-.6s-.4-.2-.7-.2c-.3 0-.4.1-.6.2-.3.3-.6.6-.8.7s-.4.4-.7.5-.5.3-.8.4-.6.1-.9.1c-.5 0-.9-.1-1.3-.4s-.7-.6-.9-1-.4-1-.4-1.6h5.2c1-.2 1.5-.3 1.9-.5zm-6.8-1.2c.1-.9.4-1.6.8-2s1-.7 1.6-.7c.7 0 1.3.2 1.7.7s.7 1.1.7 2h-4.8zm-23 1.2c.4-.2.6-.6.6-1.3 0-.7-.2-1.4-.6-2.1s-.9-1.3-1.7-1.7-1.6-.7-2.7-.7c-.8 0-1.5.1-2.2.4s-1.2.6-1.7 1.1-.8 1.1-1 1.7-.4 1.4-.4 2.2c0 1.7.5 3 1.4 4s2.3 1.5 4 1.5c.7 0 1.4-.1 2-.3s1.1-.4 1.4-.7.7-.6.9-.9.3-.6.3-.8c0-.3-.1-.5-.3-.6s-.4-.2-.7-.2c-.3 0-.4.1-.6.2-.3.3-.6.6-.8.7s-.4.4-.7.5-.5.3-.8.4-.6.1-.9.1c-.5 0-.9-.1-1.3-.4s-.7-.6-.9-1-.4-1-.4-1.6h5.2c.9-.2 1.5-.3 1.9-.5zm-6.9-1.2c.1-.9.4-1.6.8-2s1-.7 1.6-.7c.7 0 1.3.2 1.7.7s.7 1.1.7 2h-4.8zm69.9-4.6c-.4 0-.6.1-.8.3s-.4.6-.5 1.1l-2.3 6.3L180 18c-.2-.6-.4-1-.6-1.3s-.5-.4-.9-.4c-.2 0-.4.1-.6.2s-.3.3-.5.4-.2.4-.2.5c0 .1 0 .3.1.4s.1.3.2.5.1.3.2.5l2.5 6.3c.3.6.4 1 .5 1.2s.3.4.5.6.5.3.9.3c.3 0 .5-.1.7-.2s.4-.3.5-.5.3-.4.4-.7.2-.5.3-.7l2.6-6.3c.1-.2.1-.3.2-.5s.1-.3.1-.4.1-.3.1-.4c0-.3-.1-.6-.4-.8s-.5-.3-.8-.3zm-23.5 0c-.4 0-.7.1-1 .4s-.4.7-.4 1.2v7.6c0 .5.1.9.4 1.2s.6.4 1 .4.7-.1 1-.4.4-.7.4-1.2v-7.7c0-.5-.1-.8-.4-1.1s-.6-.4-1-.4zm-51.4 0c-.3 0-.6.1-.7.2s-.3.3-.4.5-.2.5-.3.9l-1.8 6-1.6-5.5-.4-1.2c-.1-.3-.2-.4-.5-.6s-.5-.3-.9-.3-.7.1-.9.3-.4.4-.5.6-.2.6-.4 1.2L101 24l-1.7-6c-.2-.6-.3-1-.5-1.3s-.5-.4-.9-.4c-.3 0-.6.1-.8.3s-.3.5-.3.8c0 .2.1.6.3 1.2l2.2 6.4c.1.2.1.4.2.7s.2.5.4.8.3.4.5.5.5.2.7.2c.6 0 1-.2 1.2-.6s.4-.9.6-1.6l1.5-5.2 1.5 5.2c.1.5.3.8.4 1.1s.3.5.5.7.5.3 1 .3c.4 0 .7-.1.9-.3s.4-.4.5-.6.3-.6.4-1.2l2.2-6.4c.2-.6.3-1 .3-1.2 0-.3-.1-.6-.4-.8s-.5-.2-.8-.2zm86.3 7.2c-.3 0-.4.1-.6.2-.3.3-.6.6-.8.7s-.4.4-.7.5-.5.3-.8.4-.6.1-.9.1c-.5 0-.9-.1-1.3-.4s-.7-.6-.9-1-.4-1-.4-1.6h5.2c.7 0 1.2-.1 1.6-.3s.6-.6.6-1.3c0-.7-.2-1.4-.6-2.1s-.9-1.3-1.7-1.7-1.6-.7-2.7-.7c-.8 0-1.5.1-2.2.4s-1.2.6-1.7 1.1-.8 1.1-1 1.7-.4 1.4-.4 2.2c0 1.7.5 3 1.4 4s2.3 1.5 4 1.5c.7 0 1.4-.1 2-.3s1.1-.4 1.4-.7.7-.6.9-.9.3-.6.3-.8c0-.3-.1-.5-.3-.6s-.1-.4-.4-.4zm-5.5-4.7c.4-.5 1-.7 1.6-.7.7 0 1.3.2 1.7.7s.7 1.1.7 2h-4.8c.1-.8.3-1.5.8-2zm-29.4-6.3c-.4 0-.7.1-.9.4s-.4.6-.4.9c0 .4.1.7.4 1s.6.3 1 .3.7-.1.9-.3.4-.6.4-1-.1-.7-.4-1-.7-.3-1-.3zm-23.1 4.5c-.7-.4-1.4-.6-2.3-.6-.8 0-1.4.1-1.9.4s-1 .7-1.5 1.2V14c0-.5-.1-.9-.3-1.1s-.5-.4-.9-.4-.7.1-.9.4-.3.7-.3 1.2v11.6c0 .5.1.9.3 1.1s.5.4.9.4.7-.1.9-.4.4-.6.4-1.1v-.3c.3.3.5.6.7.8s.4.3.6.5.6.3.9.4.7.1 1.2.1c.7 0 1.3-.1 1.8-.4s1-.7 1.4-1.1.7-1.1.9-1.8.3-1.4.3-2.2c0-1.1-.2-2-.6-2.8s-.9-1.4-1.6-1.8zm-1.3 7.2c-.5.6-1.1.9-1.7.9-.8 0-1.4-.3-1.9-.9s-.7-1.4-.7-2.4c0-.7.1-1.3.3-1.9s.5-.9.9-1.2.8-.4 1.4-.4c.5 0 .9.1 1.3.4s.7.7.9 1.2.3 1.1.3 1.8c0 1.1-.3 1.9-.8 2.5z"/></svg>