<svg xmlns="http://www.w3.org/2000/svg" preserveAspectRatio="xMidYMid" width="50" height="50" viewBox="0 0 50 50"><defs><style>.cls-1{fill:#000;filter:url(#color-overlay-1);fill-rule:evenodd}</style><filter id="color-overlay-1" filterUnits="userSpaceOnUse"><feFlood flood-color="#fff"/><feComposite operator="in" in2="SourceGraphic"/><feBlend in2="SourceGraphic" result="solidFill"/></filter></defs><path d="M32.887 27.196a1.878 1.878 0 0 0-1.382-.569c-.569 0-1.057.216-1.463.65.04.041.169.166.386.376s.363.356.437.437c.075.081.176.211.305.387.129.176.217.348.265.518.047.169.071.356.071.559 0 .542-.19 1.003-.569 1.382-.38.379-.84.569-1.383.569-.203 0-.389-.024-.559-.071a1.62 1.62 0 0 1-.518-.264 4.715 4.715 0 0 1-.386-.306c-.082-.074-.227-.22-.437-.437l-.377-.386c-.447.42-.67.915-.67 1.484 0 .542.189 1.002.569 1.382l4.187 4.208c.366.366.826.549 1.382.549.542 0 1.003-.177 1.383-.529l2.988-2.968c.379-.378.569-.833.569-1.361a1.88 1.88 0 0 0-.57-1.382l-4.228-4.228zM44 0H6C2.7 0 0 2.7 0 6v38c0 3.3 2.7 6 6 6h38c3.3 0 6-2.7 6-6V6c0-3.3-2.7-6-6-6zm-4.14 36.932L36.871 39.9c-1.125 1.125-2.5 1.687-4.126 1.687-1.64 0-3.022-.576-4.147-1.728l-4.188-4.207c-1.125-1.125-1.687-2.5-1.687-4.127 0-1.667.596-3.083 1.789-4.248l-1.789-1.789c-1.165 1.192-2.575 1.789-4.228 1.789-1.626 0-3.009-.57-4.147-1.708l-4.228-4.228c-1.139-1.138-1.708-2.521-1.708-4.147 0-1.626.576-3.001 1.728-4.126l2.988-2.968c1.125-1.125 2.5-1.688 4.127-1.688 1.639 0 3.022.576 4.147 1.728l4.187 4.208c1.125 1.125 1.688 2.5 1.688 4.127 0 1.667-.597 3.083-1.789 4.248l1.789 1.789c1.165-1.193 2.574-1.789 4.228-1.789 1.626 0 3.008.57 4.146 1.708l4.229 4.228c1.138 1.139 1.707 2.521 1.708 4.147 0 1.626-.577 3.001-1.728 4.126zM18.637 12.885a1.878 1.878 0 0 0-1.382-.569c-.529 0-.989.182-1.383.548l-2.988 2.968c-.379.38-.569.834-.569 1.362 0 .542.19 1.003.569 1.383l4.229 4.228c.365.366.826.549 1.382.549a1.97 1.97 0 0 0 1.464-.63l-.387-.377a13.39 13.39 0 0 1-.437-.436 5.04 5.04 0 0 1-.304-.387 1.645 1.645 0 0 1-.265-.518 2.091 2.091 0 0 1-.071-.559c0-.542.19-1.003.569-1.383.38-.379.841-.569 1.383-.569.203 0 .389.024.559.071.169.048.342.136.518.265s.305.23.386.305c.082.074.227.22.437.437l.376.386c.447-.421.671-.915.671-1.484 0-.542-.19-1.003-.569-1.383l-4.188-4.207z" class="cls-1"/></svg>