<svg xmlns="http://www.w3.org/2000/svg" preserveAspectRatio="xMidYMid" width="23.571" height="29.999" viewBox="0 0 22 28"><path d="M20.664.009c-.259 0-.656.08-1.077.46l-8.508 6.662c-.228.205-.773.415-1.08.415h-8c-1.102 0-2 .905-2 2.015v8.061a2.01 2.01 0 0 0 2 2.014h4v-2.014h-4V9.561h8c.801 0 1.816-.389 2.412-.929L19.999 2.8v20.793l-7.594-5.12c-.611-.492-1.624-.851-2.406-.851v2.014c.321 0 .905.209 1.157.41l8.437 5.801c.411.332.791.4 1.037.4.681 0 1.369-.537 1.369-1.565V1.556c0-1.016-.671-1.547-1.335-1.547zM10.421 23.81l-1.422 1.016v-9.22c0-.556-.447-1.006-1-1.006-.552 0-1 .45-1 1.006v9.22L5.577 23.81a.996.996 0 0 0-1.394.24 1.016 1.016 0 0 0 .238 1.407l3.578 2.554 3.578-2.554c.45-.323.557-.951.239-1.407a.997.997 0 0 0-1.395-.24z" class="cls-1"/></svg>