<svg xmlns="http://www.w3.org/2000/svg" viewBox="0 0 18.6 18.6"><path d="M15.1 18.6c-.3 0-.5 0-.8-.2L10.9 17c-.6-.2-1.5-.7-2-1.1L6.1 14c-.5-.4-1.3-1.1-1.6-1.6L2.7 9.7c-.3-.5-.8-1.4-1.1-2L.2 4.3C-.2 3.6 0 2.6.6 2L2.1.5c.6-.6 1.7-.6 2.3 0l3 3c.6.6.6 1.6 0 2.3l-.7.7c-.2.2-.3.7-.1 1l1.2 1.9c.2.6.8 1.2 1.2 1.4l2 1.2c.3.2.8.1 1-.1l.8-.8c.6-.6 1.6-.6 2.3 0l3 3c.3.3.5.7.5 1.1 0 .4-.2.8-.5 1.1L16.6 18c-.4.4-.9.6-1.5.6zM1.3 2.7c-.2.3-.3.9-.2 1.2l1.5 3.4c.2.5.7 1.3 1 1.8l1.8 2.8c.3.4.9 1.1 1.4 1.3l2.8 1.9c.5.3 1.3.8 1.8 1l3.4 1.4c.3.1.9 0 1.2-.2l1.5-1.5c.1-.1.2-.2.2-.4 0-.1-.1-.3-.2-.4l-3-3c-.2-.2-.6-.2-.8 0l-.8.8c-.6.6-1.6.7-2.3.3l-2-1.2c-.6-.4-1.3-1.1-1.7-1.7L5.6 8.1c-.4-.7-.3-1.7.3-2.3l.8-.8c.2-.2.2-.6 0-.8l-3-3c-.3-.2-.6-.2-.8 0L1.3 2.7z"/></svg>