<svg xmlns="http://www.w3.org/2000/svg" preserveAspectRatio="xMidYMid" width="28" height="28.03" viewBox="0 0 28 28.03"><path d="M26.34 13.885c-.477 0-.964.204-1.452.613l-3.889 3.307v-.459c0-1.627-1.136-3.371-2.829-3.371H5.999c-2.505 0-4 1.492-4 3.991v6.017c0 2.552 1.421 3.959 4 3.959H18.17c1.772 0 2.829-.934 2.829-2.498v-1.333l3.94 3.303c.483.408.967.614 1.437.614.749 0 1.623-.544 1.623-2.081v-9.976c0-1.441-.833-2.086-1.659-2.086zm-.341 11.811l-3.798-3.185c-.476-.402-.987-.614-1.479-.614-.83 0-1.723.651-1.723 2.081v1.466c0 .291 0 .503-.829.503H5.999c-1.476 0-2-.514-2-1.964v-6.017c0-1.417.579-1.995 2-1.995H18.17c.403 0 .829.707.829 1.375v.529c0 1.434.917 2.086 1.77 2.086.501 0 1.016-.209 1.498-.612l3.732-3.175v9.522zm-17-18.206c0-2.474-2.018-4.488-4.5-4.488-2.481 0-4.5 2.014-4.5 4.488a4.5 4.5 0 0 0 9 0zm-7 0a2.5 2.5 0 0 1 5 0 2.5 2.5 0 0 1-5 0zm15 4.49c3.309 0 6-2.685 6-5.987 0-3.3-2.691-5.985-6-5.985-3.308 0-6 2.685-6 5.985 0 3.302 2.692 5.987 6 5.987zm0-9.976a4 4 0 0 1 4 3.989 4 4 0 0 1-8 0 4 4 0 0 1 4-3.989zm-9 15.962c-1.104 0-2 .893-2 1.995a2 2 0 0 0 4 0 1.997 1.997 0 0 0-2-1.995z" class="cls-1"/></svg>