<svg xmlns="http://www.w3.org/2000/svg" viewBox="0 0 30 30"><path d="M18.8 6a9.147 9.147 0 0 0-8.654 6.106c-4.117-.213-8.725.67-8.725 2.657a1.6 1.6 0 0 0 .736 1.246 1.861 1.861 0 0 0-1.175 1.52 1.883 1.883 0 0 0 1.172 1.53 1.572 1.572 0 0 0-.733 1.236c0 1.795 3.786 2.734 7.525 2.734a18.377 18.377 0 0 0 4.74-.57A9.2 9.2 0 0 0 18.8 24a9.085 9.085 0 0 0 9.149-9A9.085 9.085 0 0 0 18.8 6zm-9.852 7.029c.319 0 .627.009.928.022a8.455 8.455 0 0 0-.088 3.426c-.273.011-.551.02-.84.02-3.913 0-6.509-1.044-6.509-1.734s2.597-1.734 6.509-1.734zM2 17.529a1.671 1.671 0 0 1 1.23-.929 16.231 16.231 0 0 0 5.718.9c.357 0 .711-.012 1.063-.032a8.848 8.848 0 0 0 .678 1.679 20.082 20.082 0 0 1-2.181.118C4.6 19.263 2 18.22 2 17.529zm6.948 4.5c-3.913 0-6.509-1.044-6.509-1.734a1.226 1.226 0 0 1 .829-.753 17.4 17.4 0 0 0 5.24.721 21.117 21.117 0 0 0 2.751-.18 9.1 9.1 0 0 0 1.415 1.581 18.093 18.093 0 0 1-3.726.365zM18.8 22a7 7 0 1 1 7.116-7 7.067 7.067 0 0 1-7.116 7z"/></svg>