<svg xmlns="http://www.w3.org/2000/svg" viewBox="0 0 22 23"><path d="M17.5 14c-1.6 0-3 .8-3.8 2.1l-5.2-2.6c.3-.6.5-1.3.5-2s-.2-1.4-.5-2l5.2-2.6c.8 1.3 2.2 2.1 3.8 2.1C20 9 22 7 22 4.5S20 0 17.5 0 13 2 13 4.5c0 .5.1 1.1.3 1.5L8 8.7C7.2 7.7 5.9 7 4.5 7 2 7 0 9 0 11.5S2 16 4.5 16c1.4 0 2.7-.7 3.5-1.7l5.3 2.6c-.2.5-.3 1-.3 1.5 0 2.5 2 4.5 4.5 4.5s4.5-2 4.5-4.5-2-4.4-4.5-4.4zm0-13C19.4 1 21 2.6 21 4.5S19.4 8 17.5 8 14 6.4 14 4.5 15.6 1 17.5 1zm-13 14C2.6 15 1 13.4 1 11.5S2.6 8 4.5 8 8 9.6 8 11.5 6.4 15 4.5 15zm13 7c-1.9 0-3.5-1.6-3.5-3.5s1.6-3.5 3.5-3.5 3.5 1.6 3.5 3.5-1.6 3.5-3.5 3.5z"/></svg>