<svg xmlns="http://www.w3.org/2000/svg" preserveAspectRatio="xMidYMid" width="32.142" height="28.928" viewBox="0 0 30 27"><path d="M9.999 14.184c-.552 0-1 .454-1 1.011v10.12c0 .559.448 1.012 1 1.012.553 0 1-.453 1-1.012v-10.12c0-.557-.447-1.011-1-1.011zm16 .43v-3.71c0-5.902-5.037-10.887-11-10.887-6.065 0-11 4.801-11 10.705v3.892c-1.677 1.085-4 3.051-4 5.642 0 3.963 5.447 6.477 5.679 6.581.247.114.5.17.751.17.895 0 1.57-.727 1.57-1.692v-10.12c0-.965-.675-1.69-1.57-1.69-.143 0-.287.024-.43.06v-2.843c0-4.786 4.037-8.682 9-8.682 4.879 0 9 4.059 9 8.864v2.661a1.76 1.76 0 0 0-.429-.06c-.896 0-1.571.725-1.571 1.69v10.12c0 .965.675 1.692 1.571 1.692.251 0 .503-.056.751-.17.232-.104 5.678-2.618 5.678-6.581 0-2.591-2.323-4.557-4-5.642zm-20 10.132c-1.45-.77-4-2.529-4-4.49 0-1.687 1.902-3.231 3.325-4.114.144-.052.275-.123.381-.229.102-.06.201-.116.294-.166v8.999zm18-.002v-8.977c.14.073.292.159.449.251.064.044.125.089.198.117 1.453.886 3.353 2.427 3.353 4.121 0 1.951-2.548 3.714-4 4.488zm-4-10.56c-.552 0-1 .454-1 1.011v10.12c0 .559.448 1.012 1 1.012.553 0 1-.453 1-1.012v-10.12c0-.557-.447-1.011-1-1.011zm-.028-6.965a.99.99 0 0 0 .679-.271 1.02 1.02 0 0 0 .055-1.43c-1.455-1.591-3.481-2.466-5.706-2.466-2.252 0-4.218.823-5.685 2.377a1.022 1.022 0 0 0 .033 1.432.993.993 0 0 0 1.414-.033c1.08-1.146 2.546-1.752 4.238-1.752 1.685 0 3.151.629 4.238 1.817a.987.987 0 0 0 .734.326z" class="cls-1"/></svg>